<svg width="260" height="96" viewBox="0 0 260 96" fill="none" xmlns="http://www.w3.org/2000/svg">
<g filter="url(#filter0_d_1_972)">
<rect x="15" y="10" width="220" height="56" rx="10" fill="#5A98D0"/>
</g>
<path d="M70.1606 37.9297C68.8742 37.5599 67.9367 37.1068 67.3481 36.5703C66.7648 36.0286 66.4731 35.362 66.4731 34.5703C66.4731 33.6745 66.8299 32.9349 67.5434 32.3516C68.2622 31.763 69.1945 31.4688 70.3403 31.4688C71.1216 31.4688 71.8169 31.6198 72.4263 31.9219C73.0408 32.224 73.5148 32.6406 73.8481 33.1719C74.1867 33.7031 74.3559 34.2839 74.3559 34.9141H72.8481C72.8481 34.2266 72.6294 33.6875 72.1919 33.2969C71.7544 32.901 71.1372 32.7031 70.3403 32.7031C69.6007 32.7031 69.0226 32.8672 68.6059 33.1953C68.1945 33.5182 67.9888 33.9688 67.9888 34.5469C67.9888 35.0104 68.1841 35.4036 68.5747 35.7266C68.9705 36.0443 69.6398 36.3359 70.5825 36.6016C71.5304 36.8672 72.27 37.1615 72.8013 37.4844C73.3377 37.8021 73.7335 38.1745 73.9888 38.6016C74.2492 39.0286 74.3794 39.5312 74.3794 40.1094C74.3794 41.0312 74.02 41.7708 73.3013 42.3281C72.5825 42.8802 71.6216 43.1562 70.4184 43.1562C69.6372 43.1562 68.908 43.0078 68.2309 42.7109C67.5539 42.4089 67.0304 41.9974 66.6606 41.4766C66.296 40.9557 66.1138 40.3646 66.1138 39.7031H67.6216C67.6216 40.3906 67.8742 40.9349 68.3794 41.3359C68.8898 41.7318 69.5695 41.9297 70.4184 41.9297C71.2101 41.9297 71.8169 41.7682 72.2388 41.4453C72.6606 41.1224 72.8716 40.6823 72.8716 40.125C72.8716 39.5677 72.6763 39.138 72.2856 38.8359C71.895 38.5286 71.1867 38.2266 70.1606 37.9297ZM80.2303 43.1562C79.0845 43.1562 78.1522 42.7812 77.4334 42.0312C76.7147 41.276 76.3553 40.2682 76.3553 39.0078V38.7422C76.3553 37.9036 76.5142 37.1562 76.8319 36.5C77.1548 35.8385 77.6027 35.3229 78.1756 34.9531C78.7538 34.5781 79.3788 34.3906 80.0506 34.3906C81.1496 34.3906 82.0038 34.7526 82.6131 35.4766C83.2225 36.2005 83.5272 37.237 83.5272 38.5859V39.1875H77.8006C77.8215 40.0208 78.0636 40.6953 78.5272 41.2109C78.9959 41.7214 79.5897 41.9766 80.3084 41.9766C80.8189 41.9766 81.2511 41.8724 81.6053 41.6641C81.9595 41.4557 82.2694 41.1797 82.535 40.8359L83.4178 41.5234C82.7095 42.612 81.647 43.1562 80.2303 43.1562ZM80.0506 35.5781C79.4673 35.5781 78.9777 35.7917 78.5819 36.2188C78.186 36.6406 77.9413 37.2344 77.8475 38H82.0819V37.8906C82.0402 37.1562 81.8423 36.5885 81.4881 36.1875C81.134 35.7812 80.6548 35.5781 80.0506 35.5781ZM89.3547 43.1562C88.2089 43.1562 87.2766 42.7812 86.5578 42.0312C85.8391 41.276 85.4797 40.2682 85.4797 39.0078V38.7422C85.4797 37.9036 85.6385 37.1562 85.9563 36.5C86.2792 35.8385 86.7271 35.3229 87.3 34.9531C87.8781 34.5781 88.5031 34.3906 89.175 34.3906C90.274 34.3906 91.1281 34.7526 91.7375 35.4766C92.3469 36.2005 92.6516 37.237 92.6516 38.5859V39.1875H86.925C86.9458 40.0208 87.188 40.6953 87.6516 41.2109C88.1203 41.7214 88.7141 41.9766 89.4328 41.9766C89.9432 41.9766 90.3755 41.8724 90.7297 41.6641C91.0839 41.4557 91.3938 41.1797 91.6594 40.8359L92.5422 41.5234C91.8339 42.612 90.7714 43.1562 89.3547 43.1562ZM89.175 35.5781C88.5917 35.5781 88.1021 35.7917 87.7063 36.2188C87.3104 36.6406 87.0656 37.2344 86.9719 38H91.2063V37.8906C91.1646 37.1562 90.9667 36.5885 90.6125 36.1875C90.2583 35.7812 89.7792 35.5781 89.175 35.5781ZM108.557 37.6797C108.557 38.7943 108.369 39.7682 107.994 40.6016C107.619 41.4297 107.088 42.0625 106.4 42.5C105.713 42.9375 104.911 43.1562 103.994 43.1562C103.098 43.1562 102.304 42.9375 101.611 42.5C100.919 42.0573 100.379 41.4297 99.9941 40.6172C99.6139 39.7995 99.4185 38.8542 99.4081 37.7812V36.9609C99.4081 35.8672 99.5982 34.901 99.9784 34.0625C100.359 33.224 100.895 32.5833 101.588 32.1406C102.286 31.6927 103.083 31.4688 103.978 31.4688C104.89 31.4688 105.692 31.6901 106.385 32.1328C107.083 32.5703 107.619 33.2083 107.994 34.0469C108.369 34.8802 108.557 35.8516 108.557 36.9609V37.6797ZM107.064 36.9453C107.064 35.5964 106.794 34.5625 106.252 33.8438C105.71 33.1198 104.952 32.7578 103.978 32.7578C103.031 32.7578 102.283 33.1198 101.736 33.8438C101.195 34.5625 100.916 35.5625 100.9 36.8438V37.6797C100.9 38.987 101.174 40.0156 101.721 40.7656C102.273 41.5104 103.031 41.8828 103.994 41.8828C104.963 41.8828 105.713 41.5312 106.244 40.8281C106.775 40.1198 107.049 39.1068 107.064 37.7891V36.9453ZM116.439 42.1641C115.876 42.8255 115.051 43.1562 113.962 43.1562C113.061 43.1562 112.374 42.8958 111.9 42.375C111.431 41.849 111.194 41.0729 111.189 40.0469V34.5469H112.634V40.0078C112.634 41.2891 113.155 41.9297 114.197 41.9297C115.301 41.9297 116.035 41.5182 116.4 40.6953V34.5469H117.845V43H116.47L116.439 42.1641ZM124.774 35.8438C124.555 35.8073 124.318 35.7891 124.063 35.7891C123.115 35.7891 122.472 36.1927 122.133 37V43H120.688V34.5469H122.094L122.118 35.5234C122.592 34.7682 123.264 34.3906 124.133 34.3906C124.415 34.3906 124.628 34.4271 124.774 34.5V35.8438ZM133.085 38.5469V43H131.585V31.625H135.781C137.025 31.625 137.999 31.9427 138.702 32.5781C139.411 33.2135 139.765 34.0547 139.765 35.1016C139.765 36.2057 139.419 37.0573 138.726 37.6562C138.038 38.25 137.051 38.5469 135.765 38.5469H133.085ZM133.085 37.3203H135.781C136.583 37.3203 137.197 37.1328 137.624 36.7578C138.051 36.3776 138.265 35.8307 138.265 35.1172C138.265 34.4401 138.051 33.8984 137.624 33.4922C137.197 33.0859 136.611 32.875 135.867 32.8594H133.085V37.3203ZM146.178 35.8438C145.96 35.8073 145.723 35.7891 145.467 35.7891C144.52 35.7891 143.876 36.1927 143.538 37V43H142.092V34.5469H143.499L143.522 35.5234C143.996 34.7682 144.668 34.3906 145.538 34.3906C145.819 34.3906 146.033 34.4271 146.178 34.5V35.8438ZM147.615 38.6953C147.615 37.8672 147.777 37.1224 148.1 36.4609C148.428 35.7995 148.881 35.2891 149.459 34.9297C150.042 34.5703 150.706 34.3906 151.451 34.3906C152.602 34.3906 153.532 34.7891 154.24 35.5859C154.954 36.3828 155.311 37.4427 155.311 38.7656V38.8672C155.311 39.6901 155.152 40.4297 154.834 41.0859C154.522 41.737 154.071 42.2448 153.482 42.6094C152.899 42.974 152.227 43.1562 151.467 43.1562C150.321 43.1562 149.391 42.7578 148.678 41.9609C147.969 41.1641 147.615 40.1094 147.615 38.7969V38.6953ZM149.068 38.8672C149.068 39.8047 149.285 40.5573 149.717 41.125C150.154 41.6927 150.738 41.9766 151.467 41.9766C152.201 41.9766 152.785 41.6901 153.217 41.1172C153.649 40.5391 153.865 39.7318 153.865 38.6953C153.865 37.7682 153.644 37.0182 153.201 36.4453C152.764 35.8672 152.18 35.5781 151.451 35.5781C150.738 35.5781 150.162 35.862 149.725 36.4297C149.287 36.9974 149.068 37.8099 149.068 38.8672ZM159.255 34.5469V43.9766C159.255 45.6016 158.518 46.4141 157.044 46.4141C156.727 46.4141 156.432 46.3672 156.162 46.2734V45.1172C156.328 45.1589 156.547 45.1797 156.818 45.1797C157.141 45.1797 157.386 45.0911 157.552 44.9141C157.724 44.7422 157.81 44.4401 157.81 44.0078V34.5469H159.255ZM157.662 32.3047C157.662 32.0755 157.732 31.8802 157.872 31.7188C158.018 31.5521 158.229 31.4688 158.505 31.4688C158.787 31.4688 159 31.5495 159.146 31.7109C159.292 31.8724 159.365 32.0703 159.365 32.3047C159.365 32.5391 159.292 32.7344 159.146 32.8906C159 33.0469 158.787 33.125 158.505 33.125C158.224 33.125 158.013 33.0469 157.872 32.8906C157.732 32.7344 157.662 32.5391 157.662 32.3047ZM165.739 43.1562C164.593 43.1562 163.661 42.7812 162.942 42.0312C162.223 41.276 161.864 40.2682 161.864 39.0078V38.7422C161.864 37.9036 162.023 37.1562 162.341 36.5C162.664 35.8385 163.111 35.3229 163.684 34.9531C164.262 34.5781 164.887 34.3906 165.559 34.3906C166.658 34.3906 167.512 34.7526 168.122 35.4766C168.731 36.2005 169.036 37.237 169.036 38.5859V39.1875H163.309C163.33 40.0208 163.572 40.6953 164.036 41.2109C164.505 41.7214 165.098 41.9766 165.817 41.9766C166.328 41.9766 166.76 41.8724 167.114 41.6641C167.468 41.4557 167.778 41.1797 168.044 40.8359L168.927 41.5234C168.218 42.612 167.156 43.1562 165.739 43.1562ZM165.559 35.5781C164.976 35.5781 164.486 35.7917 164.091 36.2188C163.695 36.6406 163.45 37.2344 163.356 38H167.591V37.8906C167.549 37.1562 167.351 36.5885 166.997 36.1875C166.643 35.7812 166.164 35.5781 165.559 35.5781ZM174.746 41.9766C175.262 41.9766 175.712 41.8203 176.098 41.5078C176.483 41.1953 176.697 40.8047 176.738 40.3359H178.106C178.08 40.8203 177.913 41.2812 177.606 41.7188C177.298 42.1562 176.887 42.5052 176.371 42.7656C175.861 43.026 175.319 43.1562 174.746 43.1562C173.595 43.1562 172.679 42.7734 171.996 42.0078C171.319 41.237 170.981 40.1849 170.981 38.8516V38.6094C170.981 37.7865 171.132 37.0547 171.434 36.4141C171.736 35.7734 172.168 35.276 172.731 34.9219C173.298 34.5677 173.968 34.3906 174.738 34.3906C175.686 34.3906 176.473 34.6745 177.098 35.2422C177.728 35.8099 178.064 36.5469 178.106 37.4531H176.738C176.697 36.9062 176.488 36.4583 176.113 36.1094C175.744 35.7552 175.285 35.5781 174.738 35.5781C174.004 35.5781 173.434 35.8438 173.027 36.375C172.626 36.901 172.426 37.6641 172.426 38.6641V38.9375C172.426 39.9115 172.626 40.6615 173.027 41.1875C173.429 41.7135 174.001 41.9766 174.746 41.9766ZM182.332 32.5V34.5469H183.91V35.6641H182.332V40.9062C182.332 41.2448 182.402 41.5 182.542 41.6719C182.683 41.8385 182.923 41.9219 183.261 41.9219C183.428 41.9219 183.657 41.8906 183.949 41.8281V43C183.569 43.1042 183.199 43.1562 182.839 43.1562C182.194 43.1562 181.707 42.9609 181.378 42.5703C181.05 42.1797 180.886 41.625 180.886 40.9062V35.6641H179.347V34.5469H180.886V32.5H182.332Z" fill="white"/>
<defs>
<filter id="filter0_d_1_972" x="0" y="0" width="260" height="96" filterUnits="userSpaceOnUse" color-interpolation-filters="sRGB">
<feFlood flood-opacity="0" result="BackgroundImageFix"/>
<feColorMatrix in="SourceAlpha" type="matrix" values="0 0 0 0 0 0 0 0 0 0 0 0 0 0 0 0 0 0 127 0" result="hardAlpha"/>
<feOffset dx="5" dy="10"/>
<feGaussianBlur stdDeviation="10"/>
<feColorMatrix type="matrix" values="0 0 0 0 0.207843 0 0 0 0 0.431373 0 0 0 0 0.678431 0 0 0 0.2 0"/>
<feBlend mode="normal" in2="BackgroundImageFix" result="effect1_dropShadow_1_972"/>
<feBlend mode="normal" in="SourceGraphic" in2="effect1_dropShadow_1_972" result="shape"/>
</filter>
</defs>
</svg>
