<svg width="15" height="13" viewBox="0 0 15 13" fill="none" xmlns="http://www.w3.org/2000/svg">
<path d="M7.52344 9.35156H3.11719L2.19531 12H0.140625L4.4375 0.625H6.21094L10.5156 12H8.45312L7.52344 9.35156ZM3.67188 7.75781H6.96875L5.32031 3.03906L3.67188 7.75781ZM13.6125 10C13.9667 10 14.2401 10.1016 14.4328 10.3047C14.6255 10.5026 14.7219 10.7526 14.7219 11.0547C14.7219 11.3516 14.6255 11.599 14.4328 11.7969C14.2401 11.9896 13.9667 12.0859 13.6125 12.0859C13.274 12.0859 13.0057 11.9896 12.8078 11.7969C12.6099 11.6042 12.5109 11.3568 12.5109 11.0547C12.5109 10.7526 12.6073 10.5026 12.8 10.3047C12.9927 10.1016 13.2635 10 13.6125 10Z" fill="white"/>
</svg>
