<svg width="12" height="13" viewBox="0 0 12 13" fill="none" xmlns="http://www.w3.org/2000/svg">
<path d="M9.375 2.21875H5.82812V12H3.86719V2.21875H0.351562V0.625H9.375V2.21875ZM10.6594 10C11.0135 10 11.287 10.1016 11.4797 10.3047C11.6724 10.5026 11.7688 10.7526 11.7688 11.0547C11.7688 11.3516 11.6724 11.599 11.4797 11.7969C11.287 11.9896 11.0135 12.0859 10.6594 12.0859C10.3208 12.0859 10.0526 11.9896 9.85469 11.7969C9.65677 11.6042 9.55781 11.3568 9.55781 11.0547C9.55781 10.7526 9.65417 10.5026 9.84688 10.3047C10.0396 10.1016 10.3104 10 10.6594 10Z" fill="white"/>
</svg>
